<svg xmlns="http://www.w3.org/2000/svg" xmlns:xlink="http://www.w3.org/1999/xlink" height="300px" width="300px"
  fill="#2c2221" version="1.1" x="0px" y="0px" viewBox="7 10 83 83"
  style="enable-background:new 0 0 100 100;height: 22px;width: 22px;" xml:space="preserve">
  <g>
    <path d="M44.9,57.9c0.3-0.1,0.5-0.3,0.8-0.5c0,0,0,0,0,0l-1.9,1.1L44.9,57.9z"></path>
    <path
      d="M76.5,45.5c-1.2,0-2.5,1-2.5,2.2v27.5c0,3.1-2.1,5.7-5.2,5.7H24.3c-3.1,0-5.3-2.6-5.3-5.7V30.8   c0-3.1,2.2-4.8,5.3-4.8h23.8c1.2,0,2.2-0.8,2.2-2s-1-2-2.2-2H24.3c-5.5,0-9.3,3.3-9.3,8.8v44.4c0,5.5,3.8,9.7,9.3,9.7h44.4   c5.5,0,10.2-4.2,10.2-9.7V47.7C79,46.5,77.7,45.5,76.5,45.5z">
    </path>
    <path
      d="M82.1,15.7c-1.6-1.6-3.6-2.4-5.8-2.4c-2.2,0-4.3,0.9-5.8,2.4L38.7,47.4l-1.3,1.3c-0.5,0.5-0.9,1.1-1.2,1.7   l-0.5,1.1l-5,10.3l-0.1,0.4c-0.4,1.4,0,3,1.1,4.1c0.8,0.8,1.8,1.2,2.9,1.2c0.4,0,0.8-0.1,1.2-0.2l11.3-5.6l0.4-0.2   c0.6-0.3,1.2-0.7,1.6-1.2l1.8-1.8l31.2-31.2C85.3,24.1,85.3,18.9,82.1,15.7z M42.2,59.2l-7,3.5l4.7-9.8c0.1-0.2,0.2-0.3,0.3-0.5   l0,0l0.2-0.4l2.9-2.9l30.3-30.3h0c0.7-0.7,1.7-1.1,2.7-1.1c1,0,2,0.4,2.7,1.1c0.7,0.7,1.1,1.7,1.1,2.7c0,1-0.4,2-1.1,2.7l-29,29   l0,0l-4,4l-0.4,0.2c0,0,0,0,0,0c-0.3,0.2-0.5,0.3-0.8,0.5l-1.2,0.6">
    </path>
  </g>
</svg>