<svg xmlns="http://www.w3.org/2000/svg" xmlns:xlink="http://www.w3.org/1999/xlink" height="300px" width="300px"
  fill="#ffffff" version="1.1" x="0px" y="0px" viewBox="0 0 100 100" enable-background="new 0 0 100 100"
  xml:space="preserve" style="width: 21px;height: 21px;fill: #3b2d2b;">
  <g>
    <path
      d="M41.602,78.206C21.417,78.206,5,61.786,5,41.603C5,21.421,21.417,5,41.602,5   c20.19,0,36.601,16.422,36.601,36.603C78.202,61.786,61.792,78.206,41.602,78.206z M41.602,13.872   c-15.291,0-27.727,12.442-27.727,27.731c0,15.293,12.436,27.735,27.727,27.735s27.726-12.442,27.726-27.735   C69.327,26.314,56.893,13.872,41.602,13.872z">
    </path>
    <path
      d="M90.548,94.98c-1.14,0-2.271-0.425-3.139-1.291L61.216,67.482c-1.742-1.729-1.742-4.545,0-6.271   c1.736-1.734,4.54-1.734,6.267,0l26.198,26.199c1.732,1.736,1.732,4.542,0,6.278C92.819,94.556,91.682,94.98,90.548,94.98z">
    </path>
  </g>
</svg>