<svg xmlns="http://www.w3.org/2000/svg" xmlns:xlink="http://www.w3.org/1999/xlink" height="300px" width="300px"
  fill="#2c2221" version="1.1" x="0px" y="0px" viewBox="0 0 24 24"
  style="enable-background:new 0 0 24 24;width: 22px;height: 22px;" xml:space="preserve">
  <style type="text/css">
    .st0 {
      display: none;
    }
  </style>
  <g>
    <g>
      <g>
        <path
          d="M17.704,24H6.296c-1.059,0-1.931-0.828-1.986-1.886L3.5,6.526C3.486,6.25,3.698,6.015,3.974,6     C4.235,5.982,4.485,6.198,4.5,6.474l0.81,15.588C5.336,22.588,5.77,23,6.296,23h11.407c0.526,0,0.96-0.412,0.987-0.938     L19.5,6.474C19.515,6.198,19.749,5.983,20.026,6c0.276,0.015,0.488,0.25,0.474,0.525l-0.81,15.588     C19.635,23.172,18.763,24,17.704,24z">
        </path>
      </g>
      <g>
        <path d="M23.5,7h-23C0.224,7,0,6.776,0,6.5S0.224,6,0.5,6h23C23.776,6,24,6.224,24,6.5S23.776,7,23.5,7z"></path>
      </g>
      <g>
        <path
          d="M4.325,13.249c-0.128,0-0.256-0.049-0.354-0.146c-0.195-0.195-0.195-0.512,0-0.707l6.248-6.249     c0.195-0.195,0.512-0.195,0.707,0s0.195,0.512,0,0.707l-6.248,6.249C4.581,13.2,4.453,13.249,4.325,13.249z">
        </path>
      </g>
      <g>
        <path
          d="M4.651,19.54c-0.128,0-0.256-0.049-0.354-0.146c-0.195-0.195-0.195-0.512,0-0.707l12.54-12.54     c0.195-0.195,0.512-0.195,0.707,0s0.195,0.512,0,0.707l-12.54,12.54C4.907,19.491,4.779,19.54,4.651,19.54z">
        </path>
      </g>
      <g>
        <path
          d="M6.809,24c-0.128,0-0.256-0.049-0.354-0.146c-0.195-0.195-0.195-0.512,0-0.707l12.982-12.982     c0.195-0.195,0.512-0.195,0.707,0s0.195,0.512,0,0.707L7.163,23.854C7.065,23.951,6.937,24,6.809,24z">
        </path>
      </g>
      <g>
        <path
          d="M13.427,24c-0.128,0-0.256-0.049-0.354-0.146c-0.195-0.195-0.195-0.512,0-0.707l6.001-6.002     c0.195-0.195,0.512-0.195,0.707,0s0.195,0.512,0,0.707l-6.001,6.002C13.683,23.951,13.555,24,13.427,24z">
        </path>
      </g>
      <g>
        <path
          d="M19.675,13.249c-0.128,0-0.256-0.049-0.354-0.146l-6.248-6.249c-0.195-0.195-0.195-0.512,0-0.707s0.512-0.195,0.707,0     l6.248,6.249c0.195,0.195,0.195,0.512,0,0.707C19.931,13.2,19.803,13.249,19.675,13.249z">
        </path>
      </g>
      <g>
        <path
          d="M19.349,19.54c-0.128,0-0.256-0.049-0.354-0.146L6.456,6.854c-0.195-0.195-0.195-0.512,0-0.707s0.512-0.195,0.707,0     l12.54,12.54c0.195,0.195,0.195,0.512,0,0.707C19.604,19.491,19.477,19.54,19.349,19.54z">
        </path>
      </g>
      <g>
        <path
          d="M17.191,24c-0.128,0-0.256-0.049-0.354-0.146L3.855,10.871c-0.195-0.195-0.195-0.512,0-0.707s0.512-0.195,0.707,0     l12.982,12.982c0.195,0.195,0.195,0.512,0,0.707C17.447,23.951,17.319,24,17.191,24z">
        </path>
      </g>
      <g>
        <path
          d="M10.573,24c-0.128,0-0.256-0.049-0.354-0.146l-6.001-6.002c-0.195-0.195-0.195-0.512,0-0.707s0.512-0.195,0.707,0     l6.001,6.002c0.195,0.195,0.195,0.512,0,0.707C10.829,23.951,10.701,24,10.573,24z">
        </path>
      </g>
      <g>
        <path
          d="M4,7C3.798,7,3.607,6.876,3.532,6.676C3.485,6.55,2.395,3.58,4.384,2.321c2.224-1.408,4.274,0.192,5.26,0.961     l0.081,0.063c0.218,0.169,0.257,0.483,0.087,0.702C9.643,4.265,9.33,4.307,9.111,4.135L9.029,4.071     C7.829,3.134,6.423,2.214,4.918,3.167C3.609,3.994,4.459,6.301,4.468,6.324c0.098,0.258-0.033,0.547-0.292,0.644     C4.118,6.99,4.059,7,4,7z">
        </path>
      </g>
      <g>
        <path
          d="M15.32,3.686c-0.231,0-0.438-0.161-0.489-0.396C14.549,1.963,13.358,1,12,1S9.451,1.963,9.169,3.29     C9.111,3.56,8.844,3.731,8.576,3.675C8.306,3.617,8.133,3.352,8.19,3.082C8.57,1.296,10.172,0,12,0s3.43,1.296,3.81,3.082     c0.057,0.27-0.115,0.536-0.385,0.593C15.389,3.682,15.354,3.686,15.32,3.686z">
        </path>
      </g>
      <g>
        <path
          d="M20,7c-0.059,0-0.118-0.01-0.176-0.032c-0.258-0.097-0.389-0.385-0.293-0.643c0.009-0.023,0.852-2.335-0.45-3.159     c-1.506-0.95-2.911-0.032-4.111,0.905l-0.082,0.063c-0.218,0.172-0.532,0.13-0.702-0.087c-0.169-0.218-0.13-0.532,0.087-0.702     l0.081-0.063c0.986-0.77,3.036-2.368,5.26-0.962c1.99,1.259,0.899,4.229,0.852,4.355C20.393,6.876,20.202,7,20,7z">
        </path>
      </g>
    </g>
  </g>
</svg>